<svg xmlns="http://www.w3.org/2000/svg" width="64" height="64" viewBox="0 0 64 64">
  <!-- Main spoiler dots pattern -->
  <circle cx="8" cy="8" r="1.5" fill="#666" opacity="0.8"/>
  <circle cx="16" cy="12" r="1" fill="#444" opacity="0.7"/>
  <circle cx="24" cy="6" r="1.2" fill="#555" opacity="0.9"/>
  <circle cx="32" cy="10" r="0.8" fill="#333" opacity="0.6"/>
  <circle cx="40" cy="8" r="1.3" fill="#777" opacity="0.8"/>
  <circle cx="48" cy="14" r="1.1" fill="#444" opacity="0.7"/>
  <circle cx="56" cy="6" r="0.9" fill="#555" opacity="0.8"/>
  
  <circle cx="4" cy="20" r="1.1" fill="#555" opacity="0.7"/>
  <circle cx="12" cy="24" r="1.4" fill="#666" opacity="0.9"/>
  <circle cx="20" cy="18" r="0.7" fill="#333" opacity="0.6"/>
  <circle cx="28" cy="22" r="1.2" fill="#444" opacity="0.8"/>
  <circle cx="36" cy="16" r="0.9" fill="#777" opacity="0.7"/>
  <circle cx="44" cy="20" r="1.3" fill="#555" opacity="0.8"/>
  <circle cx="52" cy="24" r="1" fill="#666" opacity="0.7"/>
  <circle cx="60" cy="18" r="1.1" fill="#444" opacity="0.8"/>
  
  <circle cx="6" cy="32" r="1.2" fill="#777" opacity="0.8"/>
  <circle cx="14" cy="36" r="0.8" fill="#333" opacity="0.6"/>
  <circle cx="22" cy="30" r="1.4" fill="#555" opacity="0.9"/>
  <circle cx="30" cy="34" r="1" fill="#666" opacity="0.7"/>
  <circle cx="38" cy="32" r="1.1" fill="#444" opacity="0.8"/>
  <circle cx="46" cy="36" r="0.9" fill="#777" opacity="0.7"/>
  <circle cx="54" cy="30" r="1.3" fill="#555" opacity="0.8"/>
  
  <circle cx="10" cy="44" r="1" fill="#444" opacity="0.7"/>
  <circle cx="18" cy="48" r="1.3" fill="#666" opacity="0.8"/>
  <circle cx="26" cy="42" r="0.8" fill="#333" opacity="0.6"/>
  <circle cx="34" cy="46" r="1.2" fill="#777" opacity="0.9"/>
  <circle cx="42" cy="44" r="1.1" fill="#555" opacity="0.8"/>
  <circle cx="50" cy="48" r="0.9" fill="#444" opacity="0.7"/>
  <circle cx="58" cy="42" r="1.2" fill="#666" opacity="0.8"/>
  
  <circle cx="2" cy="56" r="1.1" fill="#555" opacity="0.8"/>
  <circle cx="12" cy="60" r="0.9" fill="#777" opacity="0.7"/>
  <circle cx="20" cy="54" r="1.3" fill="#444" opacity="0.8"/>
  <circle cx="28" cy="58" r="1" fill="#666" opacity="0.7"/>
  <circle cx="36" cy="56" r="1.2" fill="#333" opacity="0.9"/>
  <circle cx="44" cy="60" r="0.8" fill="#555" opacity="0.6"/>
  <circle cx="52" cy="54" r="1.4" fill="#777" opacity="0.8"/>
  <circle cx="62" cy="58" r="1" fill="#444" opacity="0.7"/>
  
  <!-- Additional scattered dots for density -->
  <circle cx="3" cy="3" r="0.6" fill="#444" opacity="0.5"/>
  <circle cx="61" cy="3" r="0.7" fill="#555" opacity="0.6"/>
  <circle cx="3" cy="61" r="0.8" fill="#666" opacity="0.6"/>
  <circle cx="61" cy="61" r="0.6" fill="#333" opacity="0.5"/>
  
  <circle cx="15" cy="5" r="0.5" fill="#777" opacity="0.4"/>
  <circle cx="25" cy="15" r="0.6" fill="#444" opacity="0.5"/>
  <circle cx="35" cy="25" r="0.7" fill="#555" opacity="0.6"/>
  <circle cx="45" cy="35" r="0.5" fill="#666" opacity="0.4"/>
  <circle cx="55" cy="45" r="0.6" fill="#333" opacity="0.5"/>
  
  <circle cx="5" cy="45" r="0.7" fill="#777" opacity="0.5"/>
  <circle cx="15" cy="55" r="0.5" fill="#444" opacity="0.4"/>
  <circle cx="25" cy="35" r="0.6" fill="#555" opacity="0.5"/>
  <circle cx="35" cy="15" r="0.7" fill="#666" opacity="0.6"/>
  <circle cx="45" cy="5" r="0.5" fill="#333" opacity="0.4"/>
</svg>